<svg xmlns="http://www.w3.org/2000/svg" width="44" height="48"><style>.s0{fill:#0079c4}</style><path id="Layer" class="s0" d="M.1 32.2h44v15.9H.1z"/><path fill-rule="evenodd" class="s0" d="M24.3 21h1.3s-2 5.5-2 5.6h-1.4l.6-1.5-1.6-4.1h1.3l.9 2.4zM18.1 20.6c-.4 0-.8-.3-.8-.8 0-.4.4-.8.8-.8s.8.4.8.8c0 .5-.4.8-.8.8zM10.1 25.4l.1.1H8.9v-.1q-.1-.1-.1-.2h-.1c0 .1-.2.2-.4.2-.1.1-.5.1-.8.1 0 0-.7-.1-.9-.5q-.3-.5-.3-.9c0-.8.3-1 .4-1.1.1-.1.6-.5 1-.5.7 0 .9.1.9.1h.2c-.1-.2-.1-.2-.1-.3l-.1-.1c-.1-.1-.4-.2-.9-.2-.6 0-.9.3-.9.3v-1s.1-.3 1.4-.3h.3c1.3 0 1.4 1.1 1.4 1.3v2.6c0 .1.1.4.2.5zm-1.3-1.3v-.5c0-.2-.2-.3-.4-.3s-.9 0-.9.7c0 .3.3.5.4.5.5 0 .7 0 .7-.1.1-.1.2-.1.2-.3zM36.1 25.4q.1 0 .1.1H35l-.1-.1v-.2h-.1c-.1.1-.2.2-.4.2-.2.1-.5.1-.9.1 0 0-.6-.1-.8-.5q-.4-.5-.4-.9c0-.8.3-1 .5-1.1.1-.1.6-.5 1-.5.7 0 .9.1.9.1h.1c0-.2 0-.2-.1-.3q0-.1-.1-.1c-.1-.1-.3-.2-.9-.2-.5 0-.9.3-.9.3v-1s.2-.3 1.4-.3h.4c1.2 0 1.4 1.1 1.4 1.3v2.6c0 .1.1.4.1.5zm-1.3-1.3v-.5c0-.2-.2-.3-.4-.3s-.9 0-.9.7c0 .3.4.5.4.5.6 0 .7 0 .8-.1.1-.1.1-.1.1-.3zM16.7 22.2V25.5h-1.2v-2.9c0-.3-.2-.4-.6-.4-.4 0-.6.1-.6.4v2.9h-1.2v-2.9c0-.3-.3-.4-.6-.4-.4 0-.7.1-.7.4v2.9h-1.1V21h1.1v.3c.2-.2.6-.3 1.1-.3.6 0 1.1.2 1.1.5 0-.3.6-.5 1.3-.5.7 0 1.4.4 1.4 1.2zM38.7 21c.4 0 .7.2.7.2v1.2s-.3-.1-.7-.1c-.4 0-.7.2-.9.3v2.9h-1.1V21h1.2v.4c.2-.2.6-.4.8-.4z"/><path class="s0" d="M17.5 21h1.2v4.5h-1.2zM19.6 19.1h1.1v6.4h-1.1zM3.4 21.5h2.8v1.2H3.4v2.8H2.2v-6.4h4.1v1.2H3.4z"/><path fill-rule="evenodd" class="s0" d="M42.5 22.2h-1v1.5s0 .6.4.6.5-.1.5-.1v1.1s-.1.2-.6.2-1.4-.2-1.5-1.3v-2h-.6V21h.6v-1.1l1.2-.5V21h1v1.2zM30.4 19.1h1.3v6.4h-1.3v-4.4s-1.3 1.7-1.5 2c-.3-.3-1.6-2-1.6-2v4.4H26v-6.4h1.3s1.4 1.8 1.6 2c.1-.2 1.5-2 1.5-2z"/><path d="M.1.2h44v14.1H.1z" style="fill:#1eaa39"/></svg>