<svg width="138" height="22" fill="none" xmlns="http://www.w3.org/2000/svg"><path d="M79.415 11.96h9.276c.796 0 .796.24.796.677v3.384c0 .836 0 1.155-1.393 1.155h-8.56c-.318 0-.756 0-.756-.518v-2.627c0-.438 0-.598-.597-.598h-1.91c-.28 0-.558 0-.558.598v4.697c0 1.553.637 2.508 2.627 2.508h11.028a2.785 2.785 0 0 0 3.066-2.946v-6.807c0-1.473-1.115-2.628-3.106-2.628h-9.674c-.478 0-.916 0-.916-.756V4.993c0-.358 0-.637.797-.637h9.156c.876 0 .677 0 .677.797v1.632c0 .478.398.478.836.478h1.712c.478 0 .557-.24.557-.598V3.92c0-2.747-.955-3.703-3.224-3.703h-9.675c-2.508 0-3.98 0-3.98 3.703v5.334c0 1.712 1.074 2.508 3.742 2.508M98.8 11.124V5.35c0-.796.437-.955.915-.955h8.878c.597 0 .796 0 .796.637v11.465c0 .677-.398.677-.796.677h-8.918c-.597 0-.876 0-.876-.717v-5.334Zm0 10.032h10.231c2.269 0 3.423-.756 3.423-3.463V4.077c0-2.508-1.035-3.702-3.304-3.702H99.078c-2.11 0-3.384.875-3.384 3.702v14.054c0 1.751.796 3.025 3.145 3.025M.864 4.356h2.747v12.78H1.103a.478.478 0 0 0-.477.477v3.065a.438.438 0 0 0 .477.478h15.925a.438.438 0 0 0 .478-.478v-7.006a.478.478 0 0 0-.478-.478h-2.07a.478.478 0 0 0-.478.478v3.503H6.518V4.355h2.587a.478.478 0 0 0 .478-.477V.852a.478.478 0 0 0-.478-.477H.865a.478.478 0 0 0-.478.477v3.066a.478.478 0 0 0 .477.478M31.158 7.66l2.349 4.26H28.73l2.428-4.26ZM19.931 21.156h8.44a.478.478 0 0 0 .598-.478v-3.065a.478.478 0 0 0-.478-.478h-2.747l1.234-2.15h8.28l1.195 2.15h-2.548a.478.478 0 0 0-.478.478v3.065a.478.478 0 0 0 .478.478h8.44a.438.438 0 0 0 .478-.478v-3.065a.478.478 0 0 0-.478-.478h-2.349L32.95 4.355h2.667a.478.478 0 0 0 .478-.477V.852a.478.478 0 0 0-.478-.477h-8.52a.478.478 0 0 0-.477.477v3.066a.478.478 0 0 0 .477.478h2.35L22.2 17.175h-2.27a.478.478 0 0 0-.477.478v3.065a.478.478 0 0 0 .477.478M39.402 4.356h2.548l6.33 12.78h-2.588a.478.478 0 0 0-.477.477v3.065a.438.438 0 0 0 .477.478h8.44a.478.478 0 0 0 .478-.478v-3.065a.478.478 0 0 0-.478-.478h-2.349l4.579-9.355 4.459 9.395h-2.509a.478.478 0 0 0-.477.478v3.065a.478.478 0 0 0 .477.478h8.44a.438.438 0 0 0 .478-.478v-3.065a.478.478 0 0 0-.478-.478h-2.388l6.25-12.78h2.468a.478.478 0 0 0 .478-.477V.852a.478.478 0 0 0-.478-.477h-8.28a.478.478 0 0 0-.478.477v3.066a.478.478 0 0 0 .478.478h2.548l-4.618 9.395-4.658-9.395h2.468a.478.478 0 0 0 .478-.478V.852a.478.478 0 0 0-.478-.477h-8.4a.478.478 0 0 0-.478.477v3.066a.478.478 0 0 0 .478.478h2.468l-4.538 9.315-4.619-9.315h2.469a.478.478 0 0 0 .477-.478V.852a.478.478 0 0 0-.477-.477h-8.52a.478.478 0 0 0-.478.477v3.066a.478.478 0 0 0 .478.478M114.966 21.156h8.44a.44.44 0 0 0 .478-.478v-3.065a.48.48 0 0 0-.478-.478h-2.866V7.98l9.793 9.156h-2.189a.477.477 0 0 0-.478.478v3.065a.438.438 0 0 0 .478.478h8.44a.433.433 0 0 0 .351-.126.438.438 0 0 0 .126-.352v-3.065a.476.476 0 0 0-.477-.478h-2.708V4.355h2.708a.476.476 0 0 0 .477-.477V.852a.476.476 0 0 0-.477-.477h-8.321a.478.478 0 0 0-.478.477v3.066a.48.48 0 0 0 .478.478h2.667v8.997l-9.594-8.997h2.11a.478.478 0 0 0 .478-.478V.852a.48.48 0 0 0-.478-.477h-8.48a.478.478 0 0 0-.478.477v3.066a.48.48 0 0 0 .478.478h2.588v12.779h-2.588a.478.478 0 0 0-.478.478v3.065a.438.438 0 0 0 .478.478" fill="#007BC2"/></svg>