<svg xmlns="http://www.w3.org/2000/svg" id="Layer_1" x="0" y="0" viewBox="0 0 1200 203" style="enable-background:new 0 0 1200 203" xml:space="preserve"><style>.st0{fill:#ff671d}</style><path class="st0" d="M201.5 131.4c2.5 18.2 16.4 25.3 38.6 25.3 12.4 0 23.6-2.8 38.6-9.9l6 30.9c-15.9 6.4-35.7 9.3-52.6 9.3-43.4 0-76.5-25.5-76.5-68.9s29.6-68.7 70.5-68.7c48.8 0 66.4 34.6 66.4 73.7v8.4l-91-.1m50-25.8c0-15.2-7.1-27.5-25.3-27.5-16.4 0-24.2 12.4-25.2 27.5h50.5zM12.1 179.8c16.9 5 34.7 7.2 58.7 7.2 35.2 0 77.1-9.4 77.1-54 0-37-29.8-44-56.1-50.1-17.3-4.1-33.7-7.9-33.7-22 0-7.5 5.6-16.3 32.1-16.3 14.9 0 28.8 3.5 40.9 9.3l6-32.3c-15.9-5.8-34.5-8.6-56.6-8.6-34.9 0-70 16.2-70 52.3 0 34.1 27.4 41.2 51.6 47.5 17.6 4.6 34.2 8.9 34.2 24.2 0 18.4-21.6 18.4-28.8 18.4-19.9 0-37.8-4.9-49.3-8.9l-6.1 33.3M442.6 153.6c-19.4 0-34.4-13.3-34.8-35.5.4-22.2 15.4-35.5 34.8-35.5 10.9 0 16.3 2.3 24.7 7.3l6.2-33.4c-10.3-5-22.5-7.3-36.1-7.3-43.4 0-76.4 25.2-76.5 68.7v.2c.1 43.5 33.2 68.7 76.5 68.7 13.6 0 25.8-2.3 36.1-7.3l-6.2-33.3c-8.4 5.1-13.8 7.4-24.7 7.4M571.5 156.6l.7.1c4.3 1.1 8.5 1.9 12.1 1.9 12.5 0 22-5.8 27.8-13.9l.7-.2.2.7c-4.1 10.6-11.8 20.3-14.6 22.5-1.9 1.6-5 1.6-5 1.6-10.4 0-17-4.3-22.4-10l-.5-.7-.1-.9 1.1-1.1M572.9 138.8c20.9 0 24.2-11.8 29.2-21.6 0 0 5.3-11.4 14.3-13.7l.3-.7c-3-14.1-10.2-26.6-20.2-36.2l-.5-.2-.4.3s-3.9 5.3-4.1 15.3c-.1 7.3 2.1 13.6 2 20.8 0 4.2-.7 8.7-2.8 14-3.1 7.7-8.4 12.6-13.1 15.2 0 0-2.9 2-9.4 3.5l-1 1.8 1 1s1.4.5 4.7.5"/><path class="st0" d="m519.4 83.6.3.1-.1.3c-14.1 17-7 34.7 4.9 39.6 2.4 1 14.6 5.1 21.3-11.4 3.7-9 2.8-17.3 6.7-26.9 6.9-16.9 20-24.8 32-27.1l.4-.3-.3-.7c-11.1-7-24.2-11.1-38.3-11.1-39.7 0-71.9 32.2-71.9 71.9s32.2 71.9 71.9 71.9c15 0 29-4.6 40.5-12.5l.1-.3-.3-.1s-26.8 7.3-54.2-2.6c-49-18.6-32.9-64.2-33-78.2 0-4.7-1.9-7.1-3.5-8.8-1.7-1.7-4.3-3.6-3.9-4.7.4-1.2 5-1.4 9.1-.9 4.9.5 7.9 1.6 10.6 2 2.8.4 6.3 0 7.7-.2M669 52.4c-11.5-.5-41.4 1.4-41.4 34.4v97.1H673v-55.6c0-28.3 9.6-41.2 25.8-41.2 12.9 0 18.2 11.1 18.2 26v70.7h45.5v-55.6c0-28.3 9.6-41.2 25.7-41.2 12.9 0 18.2 11.1 18.2 26v70.7h45.5v-77.5c0-35.6-8.6-57.1-46.5-57.1-18.7 0-36.1 7.6-46.7 25.3-7.1-17.2-22.5-25.3-41.2-25.3-20.7 0-38.9 8.3-48 27.3h-.5v-24M996.4 183.7c-2-10.3-2.6-20.6-2.6-30.9v-49c0-40.2-29-54.6-62.6-54.6-19.4 0-35.6 2.8-51.8 9.3v30.8c12.6-7.1 27.3-9.9 41.9-9.9 16.4 0 29.8 4.8 30.1 22.7-5.8-1-13.9-1.8-21.2-1.8-24.2 0-67.9 4.8-67.9 45 0 28.5 23.2 41.4 49.3 41.4 18.7 0 31.3-7.3 41.7-23.7h.5c8.5 25.4 41.7 20.9 42.6 20.7m-73-27.1c-10.6 0-18.7-5.3-18.7-14.4 0-12.6 12.1-17.4 27.5-17.4 6.8 0 13.4.5 19.2.7 0 15.5-10.9 31.1-28 31.1zM303.3 81.7V185h46V53.2s-40.6-5.5-46 28.5zM1008.9 80.9v103.3h45.3V52.3s-39.9-5.4-45.3 28.6zM1114 42v103.3h45.9V13.5c.1 0-40.4-5.5-45.9 28.5z"/><path class="st0" d="M1083.5 52.1h108.2v32.1h-108.2z"/><path class="st0" d="M1054 73.1s2.2-20.5 29.7-21l1.1 32s-23.6-2-31 39.5l.2-50.5zM1114 145.3s.7 37.4 30.7 40.4c28.7 2.9 46.7-1.8 46.7-1.8l-5.3-28s-22.2 6.3-26.2-10.6H1114z"/></svg>