<svg xmlns="http://www.w3.org/2000/svg" width="73" height="51"><path fill="#fff" d="M9.3 28.8q0-.1-.1-.1H5.8c-1.8 0-3.3-1.5-3.3-3.3 0-.9.3-1.8 1-2.5L21.9 3.6c1.3-1.3 3.4-1.3 4.7 0l4.3 4.2h8.6c.6-3.6 5.3-5.2 8.4-5.2 5.3 0 9.7 3.7 10.8 8.7q.1.1.1.3v.1c3.8 2.1 6.5 6 6.9 10.6v.2h.1c3.1 1.8 5.1 5.2 5.1 9 0 4.4-2.7 8.2-6.4 9.8q-.1 0-.1.1v3.4c0 1.8-1.5 3.3-3.3 3.3H12.6c-1.8 0-3.3-1.5-3.3-3.3z"/><path fill="#003894" d="M33.6 25.8V18c0-1.2.9-2.1 2.1-2.1 1.2 0 2.1.9 2.1 2.1v7.8c0 1.2-.9 2.2-2.1 2.2-1.2 0-2.1-1-2.1-2.2zM50.3 25.8V18c0-1.2 1-2.1 2.1-2.1 1.2 0 2.2.9 2.2 2.1v7.8c0 1.2-1 2.2-2.2 2.2-1.1 0-2.1-1-2.1-2.2zM28.9 32.9q0-.1-.1-.1h-.6c-.9 0-1.7-.8-1.7-1.8s.8-1.8 1.7-1.8h5c1 0 1.8.8 1.8 1.8s-.8 1.8-1.8 1.8H33q-.2 0-.2.1v6.4c0 1.1-.8 2-1.9 2-1.1 0-2-.9-2-2zM48.9 17.9v7.9c0 1.2-.9 2.1-2 2.1-.7 0-1.4-.4-1.7-.9l-1.8-2.7h-.1v1.6c0 1.1-.9 2-2.1 2-1.1 0-2-.9-2-2V18c0-1.2.9-2.1 2-2.1.7 0 1.4.4 1.7.9l1.9 2.7.1-1.6c0-1.1.9-2 2-2s2 .9 2 2zM32.3 18v7.9c0 1.1-1 2.1-2.1 2.1s-2-1-2-2.1l-.1-2.9H28l-1.7 2.1-.1.1c-.1 0-.1-.1-.1-.1L24.2 23q-.1 0-.1.1v2.8c0 1.1-1 2.1-2.1 2.1s-2-1-2-2.1V18c0-1.2.9-2.1 2.1-2.1.6 0 1.2.3 1.6.8l2.3 2.6h.2l2.3-2.6c.4-.5 1-.8 1.6-.8 1.2 0 2.2.9 2.2 2.1z"/><path fill-rule="evenodd" fill="#003894" d="M56.8 33.2c0 1.9-1.4 3.9-4.2 3.9h-1v2.1c0 1.1-1 2.1-2.1 2.1s-2.1-1-2.1-2.1v-8.8c0-.6.6-1.2 1.3-1.2h4c2.3 0 4.1 1.8 4.1 4zm-3.2 0c0-.5-.4-.9-.9-.9h-1.1v1.8h1.1c.5 0 .9-.4.9-.9z"/><path fill="#003894" d="M60.9 25.9c0-2.1-.2-3.3-.2-3.8-.6-3.2-2.9-5.9-6-6.7q-.2-.1-.4-.1-.1 0-.1-.1c0-2.1-.4-3.2-.8-4.1-1-2-3.1-3.4-5.5-3.4-1.4 0-2.7.4-3.8 1.2-.7.6-1.8.4-2.3-.4-.5-.8-.3-1.8.4-2.4 1.6-1.1 3.6-1.8 5.7-1.8 4.9 0 8.9 3.6 9.5 8.4q0 .1.1.2c3.9 1.8 6.6 5.8 6.6 10.5q0 .1.1.2h.2c2.9 1.5 4.9 4.5 4.9 8 0 4.1-2.7 7.5-6.4 8.6q-.1 0-.1.1v4.5c0 1-.7 1.8-1.7 1.8H12.6c-1 0-1.7-.8-1.7-1.8V27.3c0-.1-.1-.2-.2-.2H5.8c-.9 0-1.7-.8-1.7-1.7 0-.4.1-.8.4-1.1L23.1 4.8c.6-.6 1.7-.6 2.3 0l5.7 5.5c.6.7.6 1.8 0 2.5-.7.6-1.8.6-2.4 0l-4.4-4.3h-.1L9.8 23.6q-.1.1 0 .1h2.7c.9 0 1.7.8 1.7 1.8V43c0 .1.1.2.2.2h44.9c.1 0 .2-.1.2-.2v-4c0-1 .7-1.8 1.7-1.9 2.7-.3 4.8-2.6 4.8-5.5 0-2.8-2.2-5.2-5-5.5q-.1 0-.1-.2z"/><path fill="#003894" d="M26.3 37.5c0 2.2-1.8 4-4 4-1.6 0-2.8-.6-3.7-1.6-.3-.3-.4-.7-.4-1.1 0-1 .8-1.8 1.7-1.8.4 0 .8.2 1.1.4.1 0 .7.4 1 .4.1 0 .3-.1.3-.3 0-.2-.3-.5-.5-.5-1.7-.9-3.3-2.1-3.3-4.2 0-2.2 1.6-3.9 4-3.9 1.3 0 2.4.6 3.3 1.5.2.3.4.6.4 1 0 .9-.7 1.5-1.6 1.5-.5 0-1.3-.4-1.4-.5-.2-.1-.3-.2-.5-.2s-.3.2-.3.4.3.5 1.1.8c2 1.1 2.8 2.6 2.8 4.1z"/><path fill-rule="evenodd" fill="#003894" d="M40.4 41.5c-3.4 0-6.2-2.8-6.2-6.3s2.8-6.3 6.2-6.3c3.4 0 6.2 2.8 6.2 6.3s-2.8 6.3-6.2 6.3zm2.4-6.3c0-1.3-1.1-2.4-2.4-2.4-1.3 0-2.4 1.1-2.4 2.4 0 1.4 1.1 2.5 2.4 2.5 1.3 0 2.4-1.1 2.4-2.5z"/></svg>